<svg width="24" height="24" viewBox="0 0 24 24" fill="none" xmlns="http://www.w3.org/2000/svg">
<g id="emoji_food_beverage">
<mask id="mask0_1368_3440" style="mask-type:alpha" maskUnits="userSpaceOnUse" x="0" y="0" width="24" height="24">
<rect id="Bounding box" width="24" height="24" fill="#D9D9D9"/>
</mask>
<g mask="url(#mask0_1368_3440)">
<path id="emoji_food_beverage_2" d="M4.00049 21V19H20.0005V21H4.00049ZM8.00049 17C6.90049 17 5.95882 16.6083 5.17549 15.825C4.39215 15.0417 4.00049 14.1 4.00049 13V3H20.0005C20.5505 3 21.0213 3.19583 21.413 3.5875C21.8047 3.97917 22.0005 4.45 22.0005 5V8C22.0005 8.55 21.8047 9.02083 21.413 9.4125C21.0213 9.80417 20.5505 10 20.0005 10H18.0005V13C18.0005 14.1 17.6088 15.0417 16.8255 15.825C16.0422 16.6083 15.1005 17 14.0005 17H8.00049ZM18.0005 8H20.0005V5H18.0005V8ZM14.0005 15C14.5505 15 15.0213 14.8042 15.413 14.4125C15.8047 14.0208 16.0005 13.55 16.0005 13V5H10.0005V5.4L11.8005 6.85C11.8338 6.88333 11.9005 7.01667 12.0005 7.25V11.5C12.0005 11.6333 11.9505 11.75 11.8505 11.85C11.7505 11.95 11.6338 12 11.5005 12H7.50049C7.36715 12 7.25049 11.95 7.15049 11.85C7.05049 11.75 7.00049 11.6333 7.00049 11.5V7.25C7.00049 7.21667 7.06715 7.08333 7.20049 6.85L9.00049 5.4V5H6.00049V13C6.00049 13.55 6.19632 14.0208 6.58799 14.4125C6.97966 14.8042 7.45049 15 8.00049 15H14.0005Z" fill="#EC8013"/>
</g>
</g>
</svg>
