<svg width="92" height="32" viewBox="0 0 92 32" fill="none" xmlns="http://www.w3.org/2000/svg">
<rect width="92" height="32" rx="16" fill="#ECC113"/>
<mask id="mask0_2360_972" style="mask-type:alpha" maskUnits="userSpaceOnUse" x="12" y="4" width="24" height="24">
<rect x="12" y="4" width="24" height="24" fill="#D9D9D9"/>
</mask>
<g mask="url(#mask0_2360_972)">
<path d="M23 25V19H25V21H33V23H25V25H23ZM15 23V21H21V23H15ZM19 19V17H15V15H19V13H21V19H19ZM23 17V15H33V17H23ZM27 13V7H29V9H33V11H29V13H27ZM15 11V9H25V11H15Z" fill="black"/>
</g>
<path d="M42.7275 11.0469V21H41.0117V11.0469H42.7275ZM46.7881 15.4014V16.7617H42.29V15.4014H46.7881ZM47.3555 11.0469V12.4141H42.29V11.0469H47.3555ZM50.3223 13.6035V21H48.668V13.6035H50.3223ZM48.5586 11.6621C48.5586 11.4115 48.6406 11.2041 48.8047 11.04C48.9733 10.8714 49.2057 10.7871 49.502 10.7871C49.7936 10.7871 50.0238 10.8714 50.1924 11.04C50.361 11.2041 50.4453 11.4115 50.4453 11.6621C50.4453 11.9082 50.361 12.1133 50.1924 12.2773C50.0238 12.4414 49.7936 12.5234 49.502 12.5234C49.2057 12.5234 48.9733 12.4414 48.8047 12.2773C48.6406 12.1133 48.5586 11.9082 48.5586 11.6621ZM53.8906 10.5V21H52.2363V10.5H53.8906ZM59.0859 13.6035V14.8066H54.916V13.6035H59.0859ZM56.1191 11.792H57.7666V18.9561C57.7666 19.1839 57.7985 19.3594 57.8623 19.4824C57.9307 19.6009 58.0241 19.6807 58.1426 19.7217C58.2611 19.7627 58.4001 19.7832 58.5596 19.7832C58.6735 19.7832 58.7829 19.7764 58.8877 19.7627C58.9925 19.749 59.0768 19.7354 59.1406 19.7217L59.1475 20.9795C59.0107 21.0205 58.8512 21.057 58.6689 21.0889C58.4912 21.1208 58.2861 21.1367 58.0537 21.1367C57.6755 21.1367 57.3405 21.0706 57.0488 20.9385C56.7572 20.8018 56.5293 20.5807 56.3652 20.2754C56.2012 19.9701 56.1191 19.5645 56.1191 19.0586V11.792ZM63.6182 21.1367C63.0713 21.1367 62.5768 21.0479 62.1348 20.8701C61.6973 20.6878 61.3236 20.4349 61.0137 20.1113C60.7083 19.7878 60.4736 19.4072 60.3096 18.9697C60.1455 18.5322 60.0635 18.0605 60.0635 17.5547V17.2812C60.0635 16.7025 60.1478 16.1784 60.3164 15.709C60.485 15.2396 60.7197 14.8385 61.0205 14.5059C61.3213 14.1686 61.6768 13.9111 62.0869 13.7334C62.4971 13.5557 62.9414 13.4668 63.4199 13.4668C63.9486 13.4668 64.4111 13.5557 64.8076 13.7334C65.2041 13.9111 65.5322 14.1618 65.792 14.4854C66.0563 14.8044 66.2523 15.1849 66.3799 15.627C66.512 16.069 66.5781 16.5566 66.5781 17.0898V17.7939H60.8633V16.6113H64.9512V16.4814C64.9421 16.1852 64.8828 15.9072 64.7734 15.6475C64.6686 15.3877 64.5068 15.1781 64.2881 15.0186C64.0693 14.859 63.7777 14.7793 63.4131 14.7793C63.1396 14.7793 62.8958 14.8385 62.6816 14.957C62.472 15.071 62.2965 15.2373 62.1553 15.4561C62.014 15.6748 61.9046 15.9391 61.8271 16.249C61.7542 16.5544 61.7178 16.8984 61.7178 17.2812V17.5547C61.7178 17.8783 61.7611 18.179 61.8477 18.457C61.9388 18.7305 62.071 18.9697 62.2441 19.1748C62.4173 19.3799 62.627 19.5417 62.873 19.6602C63.1191 19.7741 63.3994 19.8311 63.7139 19.8311C64.1104 19.8311 64.4635 19.7513 64.7734 19.5918C65.0833 19.4323 65.3522 19.2067 65.5801 18.915L66.4482 19.7559C66.2887 19.9883 66.0814 20.2116 65.8262 20.4258C65.571 20.6354 65.2588 20.8063 64.8896 20.9385C64.5251 21.0706 64.1012 21.1367 63.6182 21.1367ZM69.5176 15.0117V21H67.8701V13.6035H69.4424L69.5176 15.0117ZM71.7803 13.5557L71.7666 15.0869C71.6663 15.0687 71.557 15.055 71.4385 15.0459C71.3245 15.0368 71.2106 15.0322 71.0967 15.0322C70.8141 15.0322 70.5658 15.0732 70.3516 15.1553C70.1374 15.2327 69.9574 15.3467 69.8115 15.4971C69.6702 15.6429 69.5609 15.8206 69.4834 16.0303C69.4059 16.2399 69.3604 16.4746 69.3467 16.7344L68.9707 16.7617C68.9707 16.2969 69.0163 15.8662 69.1074 15.4697C69.1986 15.0732 69.3353 14.7246 69.5176 14.4238C69.7044 14.123 69.9368 13.8883 70.2148 13.7197C70.4974 13.5511 70.8232 13.4668 71.1924 13.4668C71.2926 13.4668 71.3997 13.4759 71.5137 13.4941C71.6322 13.5124 71.721 13.5329 71.7803 13.5557ZM76.9619 18.9971C76.9619 18.833 76.9209 18.6849 76.8389 18.5527C76.7568 18.416 76.5996 18.293 76.3672 18.1836C76.1393 18.0742 75.8021 17.974 75.3555 17.8828C74.9635 17.7962 74.6035 17.6937 74.2754 17.5752C73.9518 17.4521 73.6738 17.304 73.4414 17.1309C73.209 16.9577 73.029 16.7526 72.9014 16.5156C72.7738 16.2786 72.71 16.0052 72.71 15.6953C72.71 15.3945 72.776 15.1097 72.9082 14.8408C73.0404 14.5719 73.2295 14.335 73.4756 14.1299C73.7217 13.9248 74.0202 13.763 74.3711 13.6445C74.7266 13.526 75.123 13.4668 75.5605 13.4668C76.1803 13.4668 76.7113 13.5716 77.1533 13.7812C77.5999 13.9863 77.9417 14.2666 78.1787 14.6221C78.4157 14.973 78.5342 15.3695 78.5342 15.8115H76.8867C76.8867 15.6156 76.8366 15.4333 76.7363 15.2646C76.6406 15.0915 76.4948 14.9525 76.2988 14.8477C76.1029 14.7383 75.8568 14.6836 75.5605 14.6836C75.278 14.6836 75.0433 14.7292 74.8564 14.8203C74.6742 14.9069 74.5374 15.0208 74.4463 15.1621C74.3597 15.3034 74.3164 15.4583 74.3164 15.627C74.3164 15.75 74.3392 15.8617 74.3848 15.9619C74.4349 16.0576 74.5169 16.1465 74.6309 16.2285C74.7448 16.306 74.8997 16.3789 75.0957 16.4473C75.2962 16.5156 75.5469 16.5817 75.8477 16.6455C76.4128 16.764 76.8981 16.9167 77.3037 17.1035C77.7139 17.2858 78.0283 17.5228 78.2471 17.8145C78.4658 18.1016 78.5752 18.4661 78.5752 18.9082C78.5752 19.2363 78.5046 19.5371 78.3633 19.8105C78.2266 20.0794 78.026 20.3141 77.7617 20.5146C77.4974 20.7106 77.1807 20.8633 76.8115 20.9727C76.4469 21.082 76.0368 21.1367 75.5811 21.1367C74.9111 21.1367 74.3438 21.0182 73.8789 20.7812C73.4141 20.5397 73.0609 20.2321 72.8193 19.8584C72.5824 19.4801 72.4639 19.0882 72.4639 18.6826H74.0566C74.0749 18.988 74.1592 19.2318 74.3096 19.4141C74.4645 19.5918 74.6559 19.7217 74.8838 19.8037C75.1162 19.8812 75.3555 19.9199 75.6016 19.9199C75.8978 19.9199 76.1462 19.8812 76.3467 19.8037C76.5472 19.7217 76.6999 19.6123 76.8047 19.4756C76.9095 19.3343 76.9619 19.1748 76.9619 18.9971Z" fill="black"/>
</svg>
