<svg width="40" height="40" viewBox="0 0 40 40" fill="none" xmlns="http://www.w3.org/2000/svg">
<mask id="mask0_1281_4035" style="mask-type:alpha" maskUnits="userSpaceOnUse" x="0" y="0" width="40" height="40">
<rect width="40" height="40" fill="#D9D9D9"/>
</mask>
<g mask="url(#mask0_1281_4035)">
<path d="M18.25 30.5833L12.3333 24.6666L14.75 22.25L18.25 25.75L25.25 18.75L27.6667 21.1666L18.25 30.5833ZM8.33333 36.6666C7.41667 36.6666 6.63194 36.3403 5.97917 35.6875C5.32639 35.0347 5 34.25 5 33.3333V9.99998C5 9.08331 5.32639 8.29859 5.97917 7.64581C6.63194 6.99304 7.41667 6.66665 8.33333 6.66665H10V3.33331H13.3333V6.66665H26.6667V3.33331H30V6.66665H31.6667C32.5833 6.66665 33.3681 6.99304 34.0208 7.64581C34.6736 8.29859 35 9.08331 35 9.99998V33.3333C35 34.25 34.6736 35.0347 34.0208 35.6875C33.3681 36.3403 32.5833 36.6666 31.6667 36.6666H8.33333ZM8.33333 33.3333H31.6667V16.6666H8.33333V33.3333ZM8.33333 13.3333H31.6667V9.99998H8.33333V13.3333Z" fill="url(#paint0_linear_1281_4035)"/>
</g>
<defs>
<linearGradient id="paint0_linear_1281_4035" x1="20" y1="3.33331" x2="20" y2="36.6666" gradientUnits="userSpaceOnUse">
<stop stop-color="#24B9B0"/>
<stop offset="1" stop-color="#727DE0" stop-opacity="0.82"/>
</linearGradient>
</defs>
</svg>
