<svg width="40" height="40" viewBox="0 0 40 40" fill="none" xmlns="http://www.w3.org/2000/svg">
<mask id="mask0_202_124" style="mask-type:alpha" maskUnits="userSpaceOnUse" x="0" y="0" width="40" height="40">
<rect width="40" height="40" fill="#D9D9D9"/>
</mask>
<g mask="url(#mask0_202_124)">
<path d="M33.2501 26.5833L30.6667 24C31.889 22.8611 32.8473 21.5139 33.5417 19.9583C34.2362 18.4028 34.5834 16.75 34.5834 15C34.5834 13.25 34.2362 11.6111 33.5417 10.0833C32.8473 8.55555 31.889 7.22221 30.6667 6.08332L33.2501 3.41666C34.8056 4.88888 36.0418 6.62499 36.9584 8.62499C37.8751 10.625 38.3334 12.75 38.3334 15C38.3334 17.25 37.8751 19.375 36.9584 21.375C36.0418 23.375 34.8056 25.1111 33.2501 26.5833ZM27.9167 21.25L25.2501 18.5833C25.7501 18.1111 26.1529 17.5764 26.4584 16.9792C26.764 16.3819 26.9167 15.7222 26.9167 15C26.9167 14.2778 26.764 13.618 26.4584 13.0208C26.1529 12.4236 25.7501 11.8889 25.2501 11.4167L27.9167 8.74999C28.8056 9.55555 29.5001 10.493 30.0001 11.5625C30.5001 12.6319 30.7501 13.7778 30.7501 15C30.7501 16.2222 30.5001 17.368 30.0001 18.4375C29.5001 19.5069 28.8056 20.4444 27.9167 21.25ZM15.0001 21.6667C13.1667 21.6667 11.5973 21.0139 10.2917 19.7083C8.98619 18.4028 8.33342 16.8333 8.33342 15C8.33342 13.1667 8.98619 11.5972 10.2917 10.2917C11.5973 8.9861 13.1667 8.33332 15.0001 8.33332C16.8334 8.33332 18.4029 8.9861 19.7084 10.2917C21.014 11.5972 21.6667 13.1667 21.6667 15C21.6667 16.8333 21.014 18.4028 19.7084 19.7083C18.4029 21.0139 16.8334 21.6667 15.0001 21.6667ZM1.66675 35V30.3333C1.66675 29.4167 1.90286 28.5555 2.37508 27.75C2.8473 26.9444 3.50008 26.3333 4.33341 25.9167C5.75008 25.1944 7.3473 24.5833 9.12508 24.0833C10.9029 23.5833 12.8612 23.3333 15.0001 23.3333C17.139 23.3333 19.0973 23.5833 20.8751 24.0833C22.6529 24.5833 24.2501 25.1944 25.6667 25.9167C26.5001 26.3333 27.1529 26.9444 27.6251 27.75C28.0973 28.5555 28.3334 29.4167 28.3334 30.3333V35H1.66675ZM5.00008 31.6667H25.0001V30.3333C25.0001 30.0278 24.9237 29.75 24.7709 29.5C24.6181 29.25 24.4167 29.0555 24.1667 28.9167C23.1667 28.4167 21.882 27.9167 20.3126 27.4167C18.7431 26.9167 16.9723 26.6667 15.0001 26.6667C13.0279 26.6667 11.257 26.9167 9.68758 27.4167C8.11814 27.9167 6.83342 28.4167 5.83342 28.9167C5.58341 29.0555 5.38203 29.25 5.22925 29.5C5.07647 29.75 5.00008 30.0278 5.00008 30.3333V31.6667ZM15.0001 18.3333C15.9167 18.3333 16.7015 18.0069 17.3542 17.3542C18.007 16.7014 18.3334 15.9167 18.3334 15C18.3334 14.0833 18.007 13.2986 17.3542 12.6458C16.7015 11.993 15.9167 11.6667 15.0001 11.6667C14.0834 11.6667 13.2987 11.993 12.6459 12.6458C11.9931 13.2986 11.6667 14.0833 11.6667 15C11.6667 15.9167 11.9931 16.7014 12.6459 17.3542C13.2987 18.0069 14.0834 18.3333 15.0001 18.3333Z" fill="url(#paint0_linear_202_124)"/>
</g>
<defs>
<linearGradient id="paint0_linear_202_124" x1="20.0001" y1="3.41666" x2="20.0001" y2="35" gradientUnits="userSpaceOnUse">
<stop stop-color="#24B9B0"/>
<stop offset="1" stop-color="#727DE0" stop-opacity="0.82"/>
</linearGradient>
</defs>
</svg>
