<svg width="30" height="30" viewBox="0 0 30 30" fill="none" xmlns="http://www.w3.org/2000/svg">
<path fill-rule="evenodd" clip-rule="evenodd" d="M0.226115 0.19612L0 0.392298L0.0170565 13.8991L0.0340467 27.4059L0.217952 27.5655L0.401924 27.7252L2.52424 27.7419L4.64661 27.7586V28.3339C4.64661 28.9637 4.79236 29.7429 5.04482 29.8963C5.18599 29.9821 6.67322 29.8963 15.6808 29.8963C24.6884 29.8963 25.2948 30.3112 25.3534 29.4814C25.3534 29.4814 25.3534 28.9637 25.3534 28.3339V27.7586L27.4758 27.7419L29.5981 27.7252L29.782 27.5655L29.966 27.4059L29.9829 13.8991L30 0.392298L29.7739 0.19612L29.5478 0H15H0.452164L0.226115 0.19612ZM6.37218 1.72743V2.30323L5.79146 2.3041C5.46188 2.30456 5.139 2.33606 5.04482 2.37688C4.77815 2.4925 4.64681 2.7914 4.64708 3.28211C4.64787 4.45181 5.01914 5.10846 5.91915 5.53179C6.31769 5.71928 6.37264 5.7293 7.00267 5.7293C7.6327 5.7293 7.68766 5.71928 8.08619 5.53179C8.98621 5.10846 9.35747 4.45181 9.35827 3.28211C9.35853 2.7914 9.22719 2.4925 8.96052 2.37688C8.86874 2.33703 8.55004 2.30456 8.24707 2.3041L7.69954 2.30323V1.72743H8.09973H15H22.3005V2.30323L21.7529 2.3041C21.45 2.30456 21.1313 2.33703 21.0395 2.37688C20.7661 2.49538 20.6415 2.78979 20.6414 3.31746C20.6411 4.45365 21.0187 5.11076 21.9138 5.53179C22.3123 5.71928 22.3673 5.7293 22.9973 5.7293C23.6274 5.7293 23.6823 5.71928 24.0809 5.53179C24.9809 5.10846 25.3521 4.45181 25.3529 3.28211C25.3532 2.7914 25.2218 2.4925 24.9552 2.37688C24.861 2.33606 24.5381 2.30456 24.2085 2.3041L23.6278 2.30323V1.72743H26.2796H27.8998V13.877V25.9151H27H25.8089V23.1187V19.6351C26.2115 19.6351 26.2846 19.6176 26.4378 19.4847C26.5331 19.4019 26.6285 19.253 26.6497 19.1536C26.6709 19.0542 26.6791 18.2933 26.6679 17.4626L26.6476 15.9523L26.4636 15.7928L26.2796 15.6332L23.2945 15.6171L20.3094 15.601V14.7653C20.3094 13.5327 20.0827 12.7628 19.4774 11.9402C19.1165 11.4497 18.3003 10.7704 17.7211 10.4784C17.4473 10.3404 17.2117 10.2201 17.1975 10.2112C17.1832 10.2023 17.2462 10.11 17.3372 10.0062C18.9885 8.12454 17.2408 5.49143 14.5593 5.82091C12.3027 6.09822 11.2575 8.40479 12.6628 10.0062C12.7538 10.11 12.8168 10.2023 12.8025 10.2112C12.7883 10.2201 12.5543 10.3402 12.2826 10.478C11.7032 10.7718 10.8738 11.4606 10.5218 11.9402C9.91669 12.765 9.69057 13.5335 9.69057 14.7653V15.601L6.70548 15.6171L3.72038 15.6332L3.53641 15.7928L3.35244 15.9523L3.33213 17.4626C3.32092 18.2933 3.32908 19.0542 3.35032 19.1536C3.37149 19.253 3.46686 19.4019 3.56223 19.4847C3.71541 19.6176 3.78848 19.6351 4.19106 19.6351H4.64661V23.1187V25.9151H3.72038H2.52424V13.877V1.72743H3.72038H6.37218ZM8.0104 3.74391C7.93202 4.31822 7.61439 4.57768 6.9898 4.57768C6.61084 4.57768 6.56013 4.56213 6.34205 4.37868C6.10478 4.17922 5.97503 3.90905 5.97437 3.6132L5.97397 3.45485H7.0119H8.04989L8.0104 3.74391ZM24.0256 3.6132C24.025 3.90905 23.8952 4.17922 23.658 4.37868C23.4399 4.56213 23.3892 4.57768 23.0102 4.57768C22.3856 4.57768 22.068 4.31822 21.9896 3.74391L21.9501 3.45485H22.9881H24.026L24.0256 3.6132ZM15.6808 7.06696C15.9998 7.17688 16.4783 7.63741 16.5803 7.93257C16.9107 8.88951 16.1362 9.80948 15 9.80948C13.5691 9.80948 12.8163 8.37986 13.7583 7.45137C14.2754 6.94172 14.9345 6.80992 15.6808 7.06696ZM15.965 11.0848C17.0541 11.324 18.058 12.01 18.5342 12.8405C18.9012 13.4805 18.9821 13.8312 18.9821 14.7816V15.6044H15H11.0179V14.7816C11.0179 14.2381 11.0519 13.8423 11.1181 13.6156C11.4658 12.4236 12.5087 11.4831 13.8717 11.1322C14.4744 10.9771 15.3811 10.9566 15.965 11.0848ZM25.3534 17.6197V18.4835H15H4.64661V17.6197V16.756H15H25.3534V17.6197ZM24.0098 23.9968L24.0269 28.3298H15.0004L6.27273 28.0775C6.24511 26.3947 6.2495 25.6577 6.27273 23.9749C6.27273 21.5816 6.27273 20.3534 6.27273 19.6351C6.52702 19.6351 10.0971 19.6412 15.0279 19.6492L23.9928 19.6639L24.0098 23.9968ZM8.20971 21.5816L8.03137 21.7431V23.9749C8.03137 25.3956 8.0562 26.2471 8.09973 26.3176C8.28065 26.6109 8.07279 26.6024 15 26.6024C21.9272 26.6024 21.7193 26.6109 21.9003 26.3176C21.9438 26.2471 21.9686 25.3956 21.9686 23.9749V21.7431L21.7903 21.5816L21.612 21.4201H15H8.38803L8.20971 21.5816ZM20.6413 24.0112V25.4507H15H9.35873V24.0112V22.5717H15H20.6413V24.0112Z" fill="url(#paint0_linear_202_152)"/>
<defs>
<linearGradient id="paint0_linear_202_152" x1="15" y1="0" x2="15" y2="30" gradientUnits="userSpaceOnUse">
<stop stop-color="#24B9B0"/>
<stop offset="1" stop-color="#727DE0" stop-opacity="0.82"/>
</linearGradient>
</defs>
</svg>
