<svg width="513" height="513" viewBox="0 0 513 513" fill="none" xmlns="http://www.w3.org/2000/svg">
<path fill-rule="evenodd" clip-rule="evenodd" d="M57.6457 1.48615C29.7927 6.12215 5.79075 30.6831 1.44075 59.0001C0.719746 63.6931 0.473746 127.689 0.662746 260.871L0.940746 455.871L3.76475 463.871C11.9047 486.935 28.7877 503.106 52.0137 510.085C57.5938 511.762 69.2897 511.884 251.941 512.174C394.687 512.4 447.922 512.177 453.441 511.33C472.621 508.384 489.401 497.629 500.642 481.075C505.612 473.756 510.043 462.852 511.011 455.559C511.392 452.681 512.095 450.085 512.573 449.79C513.059 449.489 513.441 363.872 513.441 255.253C513.441 144.871 513.064 61.4861 512.567 61.7931C512.087 62.0901 511.384 59.9971 511.005 57.1421C510.626 54.2871 509.077 48.7581 507.561 44.8551C498.854 22.4311 477.783 5.22815 454.372 1.42915C446.358 0.129147 65.4707 0.184147 57.6457 1.48615ZM0.930746 256.371C0.930746 363.346 1.04775 407.108 1.19075 353.621C1.33375 300.133 1.33375 212.608 1.19075 159.121C1.04775 105.633 0.930746 149.396 0.930746 256.371ZM130.441 97.7311C108.737 103.64 94.4697 125.398 98.1628 146.957C100.556 160.927 110.169 173.541 122.998 179.544C132.195 183.848 144.906 184.62 154.27 181.444C174.182 174.689 185.262 158.435 184.259 137.452C183.747 126.735 179.969 117.924 172.5 110.027C161.817 98.7311 144.917 93.7901 130.441 97.7311ZM323.347 199.405C303.584 201.715 287.303 209.951 277.792 222.449L273.941 227.508L273.409 218.19C272.857 208.514 271.731 205.132 268.484 203.394C267.313 202.767 255.859 202.371 238.93 202.371H211.287L208.364 205.294L205.441 208.217V308.344C205.441 417.114 205.209 412.577 210.913 415.176C212.734 416.006 221.578 416.371 239.853 416.371C264.852 416.371 266.302 416.268 268.772 414.326C270.202 413.2 271.835 410.613 272.401 408.576C273.048 406.246 273.432 384.626 273.435 350.331C273.442 290.819 273.475 290.41 279.368 277.748C282.987 269.97 287.907 264.526 294.637 260.851C299.129 258.399 301.342 257.893 309.087 257.549C328.22 256.697 338.289 264.555 344.095 284.871C345.608 290.164 345.849 297.764 346.14 349.371C346.322 381.546 346.701 408.897 346.983 410.152C347.264 411.407 348.945 413.317 350.718 414.398C353.714 416.225 355.866 416.364 381.291 416.367L408.641 416.371L412.117 412.895L415.593 409.419L415.154 344.145C414.695 276.042 414.434 271.485 409.986 253.948C403.368 227.86 387.778 210.026 365.38 202.921C353.116 199.031 337.627 197.735 323.347 199.405ZM111.808 204.143C110.635 205.094 109.172 206.854 108.558 208.055C107.757 209.621 107.441 238.439 107.441 309.789V409.339L110.357 412.605L113.274 415.871L139.534 416.169C167.775 416.49 169.974 416.186 173.142 411.52C174.838 409.023 174.958 403.361 175.239 312.871C175.402 260.071 175.251 214.885 174.903 212.458C174.481 209.516 173.324 207.101 171.432 205.208L168.595 202.371L141.268 202.393C116.887 202.413 113.711 202.602 111.808 204.143Z" fill="black"/>
</svg>
